# xmcd
#
# Track frame offsets: 
#        150
#        13500
#        27300
#        43650
#        58275
#        68925
#        84450
#        96825
#        108525
#        126225
#        140175
#        150375
#
# Disc length: 2657 seconds
#
# Revision: 0
# Processed by: cddbd v1.5.2PL0 Copyright (c) Steve Scherf et al.
# Submitted via: ExactAudioCopy v0.99pb4
#
DISCID=a70a5f0c
DTITLE=Fay Flacke - Untitled Island
DYEAR=1991
DGENRE=Instrumental
TTITLE0=Squeeze The Weasel
TTITLE1=Untitled Island
TTITLE2=Wring That Neck
TTITLE3=Devotion To The Dog
TTITLE4=Main Street Breakdown
TTITLE5=Bandits On Bourbon
TTITLE6=South Downs Gallop
TTITLE7=Raison D'Etre
TTITLE8=Templar Treasure
TTITLE9=Going On After The Theatre
TTITLE10=Blarneystoned
TTITLE11=New Land Shining - A Suite
EXTD=
EXTT0=
EXTT1=
EXTT2=
EXTT3=
EXTT4=
EXTT5=
EXTT6=
EXTT7=
EXTT8=
EXTT9=
EXTT10=
EXTT11=
PLAYORDER=
